Coordinates
version=1
nRows=17
nColumns=36
inDegrees=yes

Units are S.I. units (second, meters, Newtons, ...)
If the header above contains a line with 'inDegrees', this indicates whether rotational values are in degrees (yes) or radians (no).

endheader
time	pelvis_tilt	pelvis_list	pelvis_rotation	pelvis_tx	pelvis_ty	pelvis_tz	hip_flexion_r	hip_adduction_r	hip_rotation_r	knee_angle_r	knee_angle_r_beta	ankle_angle_r	subtalar_angle_r	mtp_angle_r	hip_flexion_l	hip_adduction_l	hip_rotation_l	knee_angle_l	knee_angle_l_beta	ankle_angle_l	subtalar_angle_l	mtp_angle_l	lumbar_extension	lumbar_bending	lumbar_rotation	arm_flex_r	arm_add_r	arm_rot_r	elbow_flex_r	pro_sup_r	arm_flex_l	arm_add_l	arm_rot_l	elbow_flex_l	pro_sup_l
     14.83333330	      5.72996598	     -1.73576792	      4.15345671	      0.56147758	      1.04909748	      0.86639845	     -8.27818003	      5.37859950	    -10.83856217	      7.11253274	      0.12413711	     13.04238179	     -0.98530270	     -7.49999987	     20.76431947	     -5.23032078	      0.00920336	     46.88656182	      0.81832488	      2.19806740	    -11.18514698	     -7.49999987	    -18.93831473	      4.13652101	      2.84042866	     13.68515028	    -14.81558076	     -3.79971763	     34.61278112	     72.84162310	     -0.01580447	     -6.28672989	     -7.75016304	     16.08611856	     69.33370035
     14.85000000	      5.35397860	     -1.45689593	      4.28991500	      0.55807223	      1.04851319	      0.86475802	     -8.87847064	      5.08422390	    -11.29998569	      6.48517982	      0.11318774	     13.58901587	     -0.48310207	     -7.49999987	     22.25270841	     -4.70627239	     -0.59696918	     42.96494247	      0.74987971	      2.01595684	    -10.08554915	     -7.49999987	    -18.93889209	      3.87991296	      2.91169952	     14.24644185	    -15.23813972	     -3.28914497	     36.55119045	     72.86195495	     -0.73728100	     -6.16511460	     -7.60743115	     16.41428607	     69.13917457
     14.86666670	      4.96215257	     -1.21524169	      4.35614289	      0.55633177	      1.04667595	      0.86326547	     -9.58766441	      4.83892347	    -11.37810564	      5.71819390	      0.09980131	     13.74310246	     -0.41609652	     -7.49999987	     23.51523954	     -4.15074503	     -1.11720234	     38.59408141	      0.67359379	      2.07840760	     -8.76965642	     -7.49999987	    -18.91138111	      3.69142182	      2.94502674	     14.83324266	    -15.69319124	     -2.56109714	     38.24420978	     73.38109607	     -1.47595225	     -5.98836719	     -7.39119744	     16.76267190	     69.15698132
     14.88333330	      4.46951471	     -0.84737125	      4.54044030	      0.55771562	      1.04464082	      0.86184472	    -10.40435977	      4.47497903	    -11.60141880	      4.79052708	      0.08361047	     13.71358578	     -0.13074038	     -7.49999987	     24.44678536	     -3.30117314	     -1.25537197	     33.56547277	      0.58582801	      2.48561200	     -7.03755484	     -7.49999987	    -18.67830771	      3.39333736	      2.73762769	     15.23744706	    -15.94410170	     -2.34350129	     39.55227810	     74.17302910	     -2.33773222	     -5.79025336	     -7.32713214	     16.80065942	     69.34130526
     14.90000000	      3.89272381	     -0.37371675	      4.71315574	      0.56149144	      1.04334370	      0.86134065	    -11.24954403	      3.97117767	    -11.76078704	      3.95203518	      0.06897603	     13.54594003	      0.04431545	     -7.49999987	     24.92171408	     -2.26118054	     -1.06133716	     27.92759842	      0.48742854	      3.02467633	     -5.00293388	     -7.49999987	    -18.21770158	      2.95798157	      2.48581749	     15.38184593	    -16.01567683	     -2.51166655	     40.48685919	     74.96458168	     -3.25301517	     -5.54093801	     -7.60588844	     16.53753675	     69.51275776
     14.91666670	      3.28562275	      0.03762940	      4.94582058	      0.56493688	      1.04328513	      0.86235518	    -12.03988078	      3.53645242	    -11.86417488	      3.35810343	      0.05860996	     13.21963166	      0.07120458	     -7.49999987	     25.03335767	     -1.23602720	     -0.31290702	     22.12027920	      0.38607170	      3.62031444	     -2.88268395	     -7.49999987	    -17.64069829	      2.52461161	      2.18806298	     15.36566701	    -15.90243841	     -2.58255378	     41.26413313	     75.46697295	     -4.08499424	     -5.39963723	     -7.88115492	     15.91391739	     69.57186213
     14.93333330	      2.71199828	      0.38776497	      5.09175927	      0.56699634	      1.04407237	      0.86356389	    -12.83169455	      3.18792460	    -11.71556430	      2.98675242	      0.05212866	     12.93060449	     -0.16290344	     -7.49999987	     24.92520374	     -0.35924743	      0.77721289	     16.85600110	      0.29419272	      4.25047215	     -1.06221318	     -7.49999987	    -17.02826354	      2.09274926	      1.92613807	     15.35357117	    -15.68831028	     -2.15697306	     41.83719621	     75.25992813	     -4.81427089	     -5.35081730	     -7.92594857	     15.23515960	     69.27417247
     14.95000000	      2.29646271	      0.71941666	      5.22269047	      0.56775222	      1.04452665	      0.86321830	    -13.77194015	      2.91770732	    -11.75148732	      2.75020837	      0.04800019	     13.04298164	     -0.00071161	     -7.49999987	     24.71749265	      0.41405230	      2.15386618	     12.80468924	      0.22348399	      4.74741792	     -0.11070425	     -7.49999987	    -16.52931658	      1.63473329	      1.67287058	     15.40453250	    -15.40590904	     -1.41839253	     42.01351707	     74.99609607	     -5.39336499	     -5.45621358	     -7.68249938	     14.86779785	     69.08511622
     14.96666670	      1.92682097	      1.01924336	      5.25273515	      0.56676624	      1.04246270	      0.86155952	    -14.65298404	      2.69188095	    -11.51253201	      2.64831603	      0.04622183	     13.51067205	     -0.00875459	     -7.49999987	     24.70180458	      1.00252087	      3.15518526	     10.30254320	      0.17981330	      5.20324426	      0.44565296	     -7.49999987	    -16.10088423	      1.15585126	      1.41085608	     15.42604989	    -15.08444588	     -0.71785194	     42.06522235	     74.78541021	     -5.69581561	     -5.62310978	     -7.26002222	     14.37852795	     69.08049553
     14.98333330	      1.54805860	      1.23003629	      5.28672707	      0.56412598	      1.03750591	      0.85916582	    -15.29008414	      2.51531361	    -11.31993495	      2.78853233	      0.04866907	     14.16034092	     -0.01386256	     -7.49999987	     24.93161182	      1.43062177	      3.80861348	      9.19602687	      0.16050095	      5.41467015	      0.68487918	     -7.49999987	    -15.77325773	      0.77042667	      1.08305645	     15.48717634	    -14.77210746	     -0.09753955	     42.14427546	     74.31252415	     -5.84801744	     -5.82479014	     -6.60798048	     14.08293803	     69.02469853
     15.00000000	      1.04800228	      1.27797115	      5.31386941	      0.56189792	      1.03147701	      0.85605405	    -15.57429057	      2.39643910	    -10.92048599	      3.18115622	      0.05552165	     14.67256705	     -0.36424459	     -7.49999987	     25.41993153	      1.67797595	      4.32594228	      9.21660563	      0.16086011	      4.98790888	      0.28231894	     -7.49999987	    -15.37837585	      0.59108129	      0.93328040	     15.47960066	    -14.65608536	      0.59078842	     42.25185642	     73.87581710	     -5.69611854	     -5.88222475	     -6.07830552	     13.42705939	     68.95129025
     15.01666670	      0.65629524	      1.26842359	      5.29569004	      0.56178493	      1.02630493	      0.85260439	    -15.86274791	      2.23577997	    -10.57658473	      3.84034686	      0.06702670	     14.96503215	     -0.58806159	     -7.49999987	     25.85354904	      1.81501881	      4.35987168	     10.21287791	      0.17824835	      4.27716674	      0.21551035	     -7.49999987	    -15.14661858	      0.51472424	      0.74914470	     15.60782672	    -14.43243473	      0.98787042	     42.07495129	     73.50688933	     -5.55162389	     -5.84389216	     -5.57978823	     12.92385802	     68.98110438
     15.03333330	      0.29456716	      1.18855703	      5.08536383	      0.56387395	      1.02184126	      0.84967827	    -16.04991596	      2.00726019	     -9.79917088	      4.91481477	      0.08577970	     14.77385984	     -1.40440131	     -7.49999987	     26.24067333	      1.84083786	      4.27881503	     11.84888482	      0.20680205	      3.14129835	     -0.18277931	     -7.49999987	    -14.79822705	      0.51437131	      0.85106370	     15.62505993	    -14.29371895	      1.42687677	     41.62180701	     72.98625680	     -5.23280885	     -5.69639936	     -5.27481279	     12.15539180	     68.87114893
     15.05000000	      0.05551164	      1.10216924	      4.79416682	      0.56696134	      1.01793731	      0.84775143	    -16.21113640	      1.67834706	     -9.22011960	      6.41607569	      0.11198165	     14.34723382	     -2.07736440	     -7.49999987	     26.45515430	      1.84170278	      4.17644286	     13.80716184	      0.24098043	      1.78771842	     -0.63044321	     -7.49999987	    -14.43419433	      0.53311566	      1.24069270	     15.48409391	    -14.31933557	      2.01369838	     40.85812525	     73.03570961	     -4.79076564	     -5.58130746	     -4.86658686	     11.62691311	     69.43067703
     15.06666670	     -0.14732441	      0.95244450	      4.36373592	      0.57006239	      1.01478074	      0.84665781	    -16.16913779	      1.32440160	     -8.42239283	      8.28060032	      0.14452374	     13.49577143	     -3.22878401	     -7.49999987	     26.60587743	      1.70245579	      4.00777400	     15.88064860	      0.27716961	      0.38567231	     -1.14122755	     -7.49999987	    -14.00400015	      0.64265721	      1.70340863	     15.29542190	    -14.28061074	      2.53294053	     39.89855342	     73.04398601	     -4.26415450	     -5.50282533	     -4.57060561	     11.23530900	     69.88735948
     15.08333330	     -0.26337378	      0.83231849	      3.87042845	      0.57394360	      1.01379010	      0.84549463	    -15.96619669	      0.91032283	     -7.46187442	     10.40327428	      0.18157139	     12.25199588	     -4.68734241	     -7.49999987	     26.57268469	      1.50240420	      3.72771628	     17.85912286	      0.31170050	     -0.87969220	     -1.72767967	     -7.49999987	    -13.64007093	      0.75798555	      2.19277639	     14.92490569	    -14.19434863	      2.82031134	     38.97789826	     73.50168165	     -3.78186262	     -5.57884066	     -4.28274428	     11.34214354	     71.00417642
     15.10000000	     -0.47909856	      0.68544880	      3.42833498	      0.57825587	      1.01627913	      0.84307591	    -15.24468927	      0.49651706	     -6.29225163	     13.08908699	      0.22844766	     10.84639332	     -6.45415186	     -7.49999987	     26.56899160	      1.25582130	      3.40739633	     19.71978649	      0.34417520	     -1.83925059	     -2.42150288	     -7.49999987	    -13.07480422	      0.95325870	      2.77153519	     14.23772236	    -14.16419608	      3.06040270	     37.90463768	     73.57996535	     -3.19038935	     -5.60799785	     -4.34415917	     11.35090361	     71.25616001
